# xmcd
#
# Track frame offsets:
#	150
#	14875
#	27784
#	44538
#	63468
#	77835
#	92249
#	101599
#	119433
#	130256
#	144141
#	157583
#
# Disc length: 2272 seconds
#
# Revision: 1
# Processed by: cddbd v1.4PL0 Copyright (c) Steve Scherf et al.
# Submitted via: EasyCDDAExtractor 5.0.6
#
DISCID=9a08de0c
DTITLE=João Lucas and Gabriel - Onça Pintada (Ripped by Flávio A. Biasuz)
DYEAR=1900
DGENRE=
TTITLE0=Onça Pintada
TTITLE1=Bailão
TTITLE2=Cachorrona
TTITLE3=Seu Diário
TTITLE4=Dandá Nenêm
TTITLE5=Segura Essa Danada
TTITLE6=Protesto Do Pobre
TTITLE7=Hoje Eu Pinto E Bordo
TTITLE8=Pra Que Eu Te Esqueça
TTITLE9=Instinto
TTITLE10=Dia Especial
TTITLE11=Vamos Sacudir
EXTD=(Ripped by Flávio A. Biasuz)
EXTT0=
EXTT1=
EXTT2=
EXTT3=
EXTT4=
EXTT5=
EXTT6=
EXTT7=
EXTT8=
EXTT9=
EXTT10=
EXTT11=
PLAYORDER=
